<mxfile host="app.diagrams.net" modified="2022-09-22T03:07:03.918Z" agent="5.0 (Windows NT 10.0; Win64; x64) AppleWebKit/537.36 (KHTML, like Gecko) Chrome/105.0.0.0 Safari/537.36 Edg/105.0.1343.42" etag="_0orAr9E_PZleiGRp0pt" version="20.3.3" type="github">
  <diagram id="zPy4bFuGe4jBuORoM-XY" name="第 1 页">
    <mxGraphModel dx="1040" dy="571" grid="1" gridSize="10" guides="1" tooltips="1" connect="1" arrows="1" fold="1" page="1" pageScale="1" pageWidth="827" pageHeight="1169" math="0" shadow="0">
      <root>
        <mxCell id="0" />
        <mxCell id="1" parent="0" />
        <mxCell id="jzhe7saVyRLGT_ETAR8G-17" value="normally&lt;br&gt;running" style="ellipse;whiteSpace=wrap;html=1;aspect=fixed;fontSize=18;fillColor=#CCFFCC;" vertex="1" parent="1">
          <mxGeometry x="240" y="380" width="120" height="120" as="geometry" />
        </mxCell>
        <mxCell id="jzhe7saVyRLGT_ETAR8G-18" value="migration" style="ellipse;whiteSpace=wrap;html=1;aspect=fixed;fontSize=18;fillColor=#FFF2CC;" vertex="1" parent="1">
          <mxGeometry x="420" y="200" width="120" height="120" as="geometry" />
        </mxCell>
        <mxCell id="jzhe7saVyRLGT_ETAR8G-20" value="postcopy&lt;br&gt;error" style="ellipse;whiteSpace=wrap;html=1;aspect=fixed;fontSize=18;fillColor=#EA6B66;" vertex="1" parent="1">
          <mxGeometry x="600" y="380" width="120" height="120" as="geometry" />
        </mxCell>
        <mxCell id="jzhe7saVyRLGT_ETAR8G-22" value="" style="html=1;shadow=0;dashed=0;align=center;verticalAlign=middle;shape=mxgraph.arrows2.bendArrow;dy=15;dx=38;notch=9.2;arrowHead=55;rounded=1;fontSize=18;" vertex="1" parent="1">
          <mxGeometry x="285" y="230" width="115" height="130" as="geometry" />
        </mxCell>
        <mxCell id="jzhe7saVyRLGT_ETAR8G-24" value="" style="html=1;shadow=0;dashed=0;align=center;verticalAlign=middle;shape=mxgraph.arrows2.bendArrow;dy=15;dx=38;notch=9.2;arrowHead=55;rounded=1;fontSize=18;rotation=90;" vertex="1" parent="1">
          <mxGeometry x="567.5" y="237.5" width="115" height="130" as="geometry" />
        </mxCell>
        <mxCell id="jzhe7saVyRLGT_ETAR8G-25" value="" style="html=1;shadow=0;dashed=0;align=center;verticalAlign=middle;shape=mxgraph.arrows2.bendArrow;dy=15;dx=38;notch=9.2;arrowHead=55;rounded=1;fontSize=18;rotation=-180;" vertex="1" parent="1">
          <mxGeometry x="560" y="520" width="115" height="130" as="geometry" />
        </mxCell>
        <mxCell id="jzhe7saVyRLGT_ETAR8G-26" value="roll&lt;br&gt;back" style="ellipse;whiteSpace=wrap;html=1;aspect=fixed;fontSize=18;fillColor=#A9C4EB;" vertex="1" parent="1">
          <mxGeometry x="420" y="560" width="120" height="120" as="geometry" />
        </mxCell>
        <mxCell id="jzhe7saVyRLGT_ETAR8G-27" value="" style="html=1;shadow=0;dashed=0;align=center;verticalAlign=middle;shape=mxgraph.arrows2.bendArrow;dy=15;dx=38;notch=9.2;arrowHead=55;rounded=1;fontSize=18;rotation=-90;" vertex="1" parent="1">
          <mxGeometry x="280" y="515" width="115" height="130" as="geometry" />
        </mxCell>
      </root>
    </mxGraphModel>
  </diagram>
</mxfile>
